{"title":"Excess Flesh 2015 Movies HDRip XviD AAC ESubs New +Sample ☻rDX☻","uid":13848993,"size":738628608,"categoryP":"video","categoryS":"movies","magnet":"?xt=urn:btih:ae93b1c97f2eeb48b5d23d7da9bc8efdc6baee91&amp;dn=Excess+Flesh+2015+Movies+HDRip+XviD+AAC+ESubs+New+%2BSample+%E2%98%BBrDX%E2%98%BB&amp;tr=udp%3A%2F%2Ftracker.leechers-paradise.org%3A6969&amp;tr=udp%3A%2F%2Fzer0day.ch%3A1337&amp;tr=udp%3A%2F%2Fopen.demonii.com%3A1337&amp;tr=udp%3A%2F%2Ftracker.coppersurfer.tk%3A6969&amp;tr=udp%3A%2F%2Fexodus.desync.com%3A6969","seeders":1,"leechers":0,"uploader":"basicssom","files":3,"time":1457934652,"description":"----------------------------------------------------------------\r\nExcess Flesh 2015 English Movies HDRip XviD AAC ESubs New Source with Sample ~ ☻rDX☻\r\n\r\nSCREEN SHOTS &amp; POSTER:\r\n  \nhttp://mobileshosting.com/2016/3/ExcessFlesh/index.htm  \nhttp://mobileshosting.com/2016/3/ExcessFlesh/1.html  \nhttp://mobileshosting.com/2016/3/ExcessFlesh/2.html  \nhttp://mobileshosting.com/2016/3/ExcessFlesh/3.html  \nhttp://mobileshosting.com/2016/3/ExcessFlesh/4.html  \nhttp://mobileshosting.com/2016/3/ExcessFlesh/5.html  \nhttp://mobileshosting.com/2016/3/ExcessFlesh/6.html  \nhttp://mobileshosting.com/2016/3/ExcessFlesh/7.html  \nhttp://mobileshosting.com/2016/3/ExcessFlesh/8.html  \nhttp://mobileshosting.com/2016/3/ExcessFlesh/9.html  \nhttp://mobileshosting.com/2016/3/ExcessFlesh/10.html\r\n\r\nFormat                                   : Matroska\r\nFormat version                           : Version 4 / Version 2\r\nFile size                                : 693 MiB\r\nDuration                                 : 1h 43mn\r\nOverall bit rate                         : 938 Kbps\r\nMovie name                               : Excess Flesh 2015 English Movies HDRip XviD AAC ESubs New Source ?rDX?\r\n\r\nVideo\r\nID                                       : 1\r\nFormat                                   : MPEG-4 Visual\r\nFormat profile                           : Advanced   \r\nFormat settings, BVOP                    : Yes\r\nFormat settings, QPel                    : No\r\nFormat settings, GMC                     : No warppoints\r\nFormat settings, Matrix                  : Default (H.263)\r\nCodec ID                                 : V_MS/VFW/FOURCC / XVID\r\nCodec ID/Hint                            : XviD\r\nDuration                                 : 1h 43mn\r\nBit rate                                 : 807 Kbps\r\nWidth                                    : 640 pixels\r\nHeight                                   : 352 pixels\r\nDisplay aspect ratio                     : 16:9\r\nFrame rate mode                          : Constant\r\nFrame rate                               : 23.976 fps\r\nColor space                              : YUV\r\nChroma subsampling                       : 4:2:0\r\nBit depth                                : 8 bits\r\nScan type                                : Progressive\r\nCompression mode                         : Lossy\r\nBits/(Pixel*Frame)                       : 0.149\r\nStream size                              : 597 MiB (86%)\r\nTitle                                    : ?rDX?\r\nWriting library                          : XviD 67\r\nDefault                                  : Yes\r\nForced                                   : No\r\n\r\nAudio\r\nID                                       : 2\r\nFormat                                   : MPEG Audio\r\nFormat version                           : Version 1\r\nFormat profile                           : Layer 3\r\nMode                                     : Joint stereo\r\nMode extension                           : MS Stereo\r\nCodec ID                                 : A_MPEG/L3\r\nCodec ID/Hint                            : MP3\r\nDuration                                 : 1h 43mn\r\nBit rate mode                            : Constant\r\nBit rate                                 : 112 Kbps\r\nChannel(s)                               : 2 channels\r\nSampling rate                            : 48.0 KHz\r\nCompression mode                         : Lossy\r\nStream size                              : 82.8 MiB (12%)\r\nTitle                                    : ?rDX?\r\nWriting library                          : LAME3.99r\r\nEncoding settings                        : -m j -V 4 -q 3 -lowpass 15.6 -b 112\r\nDefault                                  : Yes\r\nForced                                   : No\r\n\r\nIMDB                                      \nhttp://www.imdb.com/title/tt3468698/","torrent":{"xt":"urn:btih:ae93b1c97f2eeb48b5d23d7da9bc8efdc6baee91","amp;dn":"Excess+Flesh+2015+Movies+HDRip+XviD+AAC+ESubs+New+%2BSample+%E2%98%BBrDX%E2%98%BB","amp;tr":["udp%3A%2F%2Ftracker.leechers-paradise.org%3A6969","udp%3A%2F%2Fzer0day.ch%3A1337","udp%3A%2F%2Fopen.demonii.com%3A1337","udp%3A%2F%2Ftracker.coppersurfer.tk%3A6969","udp%3A%2F%2Fexodus.desync.com%3A6969"],"infoHash":"ae93b1c97f2eeb48b5d23d7da9bc8efdc6baee91","infoHashBuffer":{"type":"Buffer","data":[174,147,177,201,127,46,235,72,181,210,61,125,169,188,142,253,198,186,238,145]},"announce":[],"urlList":[]}}